<?xml version="1.0" standalone="no"?>
<!DOCTYPE svg PUBLIC "-//W3C//DTD SVG 20010904//EN"
 "http://www.w3.org/TR/2001/REC-SVG-20010904/DTD/svg10.dtd">
<svg version="1.0" xmlns="http://www.w3.org/2000/svg"
 width="512.000000pt" height="512.000000pt" viewBox="0 0 512.000000 512.000000"
 preserveAspectRatio="xMidYMid meet">
<metadata>
Created by potrace 1.11, written by Peter Selinger 2001-2013
</metadata>
<g transform="translate(0.000000,512.000000) scale(0.100000,-0.100000)"
fill="#000000" stroke="none">
<path d="M987 4933 c-8 -13 -7 -353 1 -354 4 0 16 -2 27 -4 11 -3 38 -7 60
-10 75 -9 320 -45 350 -51 49 -9 73 -31 81 -71 10 -49 10 -3528 0 -3696 -4
-71 -12 -137 -19 -148 -13 -21 -82 -44 -162 -54 -55 -7 -107 -14 -145 -21 -14
-2 -50 -7 -81 -10 -31 -3 -71 -9 -90 -13 l-34 -7 0 -174 0 -175 90 1 c50 1
214 5 365 8 494 10 1338 6 1735 -9 l141 -5 -1 174 c0 96 -2 177 -5 179 -3 3
-34 8 -70 11 -36 4 -85 9 -110 11 -25 3 -70 7 -100 10 -169 17 -264 27 -280
30 -67 14 -85 27 -98 75 -9 33 -8 1591 1 1597 8 5 549 4 762 -2 213 -5 491
-17 497 -21 26 -16 95 164 122 318 31 177 31 195 1 234 l-27 36 -157 -7 c-86
-3 -187 -8 -226 -10 -238 -14 -962 -22 -972 -11 -5 4 -8 388 -8 852 l-1 845
486 -3 c394 -2 490 -6 510 -17 32 -18 66 -57 89 -101 40 -76 162 -471 202
-653 l13 -59 145 7 c80 4 162 8 181 9 34 1 35 3 40 47 3 25 5 155 4 290 -2
416 -23 797 -50 930 l-5 25 -302 -2 c-166 -1 -554 -5 -862 -9 -990 -13 -2031
-7 -2079 11 -8 3 -16 1 -19 -3z"/>
</g>
</svg>
