<?xml version="1.0" encoding="UTF-8"?>
<svg width="142px" height="30px" viewBox="0 0 142 30" version="1.1" xmlns="http://www.w3.org/2000/svg" xmlns:xlink="http://www.w3.org/1999/xlink">
    <!-- Generator: Sketch 56.2 (81672) - https://sketch.com -->
    <title>Flavorist</title>
    <desc>Created with Sketch.</desc>
    <g id="Page-1" stroke="none" stroke-width="1" fill="none" fill-rule="evenodd">
        <g id="Desktop-HD" transform="translate(-22.000000, -26.000000)" fill="#FFFFFF" fill-rule="nonzero">
            <g id="Sidebar">
                <path d="M31.072,32.788 L31.072,41.536 L31.9,41.536 C33.484,41.536 35.5,41.5 38.092,41.356 L38.344,41.716 C38.344,42.436 38.02,43.984 37.66,44.38 C35.788,44.272 33.484,44.236 31.9,44.236 L31.072,44.236 L31.072,50.176 C31.072,51.328 31.072,52.012 31.108,52.408 C31.144,52.768 31.252,52.84 31.972,52.912 L34.528,53.164 L34.528,55 C33.016,54.928 30.424,54.892 28.264,54.892 C26.248,54.892 23.98,54.928 22.54,55 L22.54,53.164 L24.376,52.912 C25.096,52.804 25.204,52.768 25.24,52.408 C25.276,52.012 25.312,51.328 25.312,50.176 L25.312,35.164 C25.312,34.012 25.312,33.364 25.276,32.932 C25.24,32.572 25.132,32.536 24.412,32.428 L22.576,32.176 L22.576,30.34 C24.088,30.412 26.32,30.448 28.12,30.448 C30.172,30.448 35.104,30.34 39.388,30.34 C39.64,31.708 39.712,35.272 39.64,36.964 L37.768,37.072 C37.444,35.596 36.832,33.688 36.616,33.328 C36.364,32.896 36.22,32.788 35.428,32.788 L31.072,32.788 Z M47.956,27.352 L47.956,50.392 C47.956,51.544 47.992,52.228 48.028,52.66 C48.064,53.02 48.208,53.056 48.892,53.164 L50.188,53.38 L50.188,55 C48.676,54.928 46.84,54.892 45.328,54.892 C43.852,54.892 41.872,54.928 40.396,55 L40.396,53.38 L41.728,53.164 C42.412,53.056 42.556,53.02 42.592,52.66 C42.628,51.976 42.628,51.544 42.628,50.392 L42.628,30.196 C42.232,30.016 40.9,29.8 40.396,29.764 L40.396,28.288 C41.836,27.64 45.184,26.992 47.488,26.92 L47.956,27.352 Z M60.664,45.388 C60.664,41.428 60.556,39.844 58.036,39.844 C56.38,39.844 54.4,40.636 53.14,41.356 L52.276,39.376 C53.716,38.404 56.956,36.748 60.808,36.748 C64.768,36.748 65.74,39.736 65.74,42.94 C65.74,45.1 65.524,47.26 65.524,49.42 C65.524,51.832 65.992,53.164 67,53.164 C67.396,53.164 67.792,53.056 67.972,52.984 L68.26,54.316 C67.252,54.856 65.02,55.54 62.86,55.54 C61.384,55.54 60.772,54.352 60.52,53.092 L60.34,53.02 C59.008,54.388 57.28,55.54 54.94,55.54 C52.42,55.54 51.268,53.704 51.268,51.436 C51.268,46.54 55.66,45.604 60.664,45.388 Z M60.592,47.692 C60.34,47.62 59.728,47.512 58.972,47.512 C57.676,47.512 56.236,48.16 56.236,50.104 C56.236,52.012 57.244,52.3 58.144,52.3 C59.008,52.3 59.656,51.904 59.98,51.58 C60.34,51.22 60.52,50.896 60.52,50.176 C60.52,49.492 60.556,48.196 60.592,47.692 Z M78.772,50.932 L82.624,39.556 L79.78,38.908 L79.78,37.288 C80.428,37.324 82.588,37.396 84.1,37.396 C85.54,37.396 87.16,37.324 87.736,37.288 L87.736,38.908 L86.404,39.16 C85.828,39.268 85.684,39.448 85.36,40.384 L80.068,55 L74.56,55 L69.916,40.168 C69.7,39.484 69.52,39.268 68.98,39.16 L67.648,38.908 L67.648,37.288 C69.124,37.36 70.672,37.396 72.148,37.396 C73.66,37.396 76.864,37.36 78.376,37.288 L78.376,38.908 L75.424,39.556 L77.332,46.396 C77.8,48.016 78.16,49.384 78.484,50.932 L78.772,50.932 Z M105.88,46 C105.88,52.264 102.172,55.54 96.988,55.54 C91.768,55.54 88.168,52.048 88.168,46.036 C88.168,40.312 92.128,36.748 97.24,36.748 C102.1,36.748 105.88,40.24 105.88,46 Z M100.552,47.116 C100.552,41.752 99.112,39.052 96.844,39.052 C94.72,39.052 93.496,40.708 93.496,45.064 C93.496,50.752 95.188,53.236 97.384,53.236 C99.364,53.236 100.552,51.904 100.552,47.116 Z M107.752,39.592 L107.752,38.116 C109.12,37.468 112.036,36.82 114.34,36.748 C114.772,37.252 115.204,38.62 115.24,39.664 L115.348,39.736 C116.5,37.936 118.588,36.748 120.244,36.748 C121.756,36.748 121.936,38.044 121.936,39.016 C121.936,40.456 121.432,41.572 121.18,41.824 C121.036,41.968 120.748,42.004 120.568,41.824 C120.172,41.428 119.416,40.78 118.048,40.78 C116.644,40.78 115.924,41.248 115.492,41.896 C115.312,42.148 115.276,42.508 115.276,43.408 L115.276,50.392 C115.276,51.544 115.312,52.228 115.348,52.66 C115.384,53.02 115.564,53.056 116.212,53.128 L118.408,53.38 L118.408,55 C116.896,54.928 114.16,54.892 112.648,54.892 C111.172,54.892 109.228,54.928 107.752,55 L107.752,53.38 L109.084,53.164 C109.732,53.056 109.912,53.02 109.948,52.66 C109.984,51.976 109.984,51.544 109.984,50.392 L109.984,43.192 C109.984,41.392 109.84,40.456 109.732,39.952 C109.336,39.808 108.184,39.628 107.752,39.592 Z M130.036,37.18 L130.036,50.392 C130.036,51.544 130.072,52.228 130.108,52.66 C130.144,53.02 130.288,53.056 130.972,53.164 L132.268,53.38 L132.268,55 C130.756,54.928 128.92,54.892 127.408,54.892 C125.932,54.892 123.952,54.928 122.476,55 L122.476,53.38 L123.808,53.164 C124.492,53.056 124.636,53.02 124.672,52.66 C124.708,51.976 124.708,51.544 124.708,50.392 L124.708,40.024 C124.312,39.88 122.908,39.628 122.476,39.592 L122.476,38.116 C123.844,37.468 127.264,36.82 129.568,36.748 L130.036,37.18 Z M129.352,27.856 L130.036,28.54 L129.064,33.58 L126.796,34.372 L123.448,30.7 L123.448,29.548 C124.6,28.684 127.624,27.856 129.352,27.856 Z M146.488,42.544 L145.444,42.652 C144.652,40.744 143.248,38.98 141.268,38.98 C139.972,38.98 139,39.7 139,40.96 C139,42.58 139.648,43.12 142.312,44.092 C145.12,45.1 147.82,45.964 147.82,49.348 C147.82,52.876 144.94,55.54 140.008,55.54 C136.696,55.54 134.464,54.604 133.744,53.956 C133.636,52.768 134.14,49.96 134.68,48.88 L135.544,48.88 C135.976,51.4 137.236,53.164 140.152,53.164 C141.916,53.164 142.78,52.264 142.78,50.968 C142.78,49.42 141.7,48.952 138.928,47.944 C136.192,46.936 134.212,45.82 134.212,42.58 C134.212,38.656 137.956,36.748 141.808,36.748 C144.04,36.748 145.804,37.216 146.956,37.9 C147.064,39.052 146.884,41.752 146.488,42.544 Z M156.82,37.288 L162.796,37.288 L163.156,37.792 L162.472,39.772 L156.82,39.772 L156.82,48.232 C156.82,51.436 158.188,52.48 159.988,52.48 C160.996,52.48 162.148,52.264 162.796,52.048 L163.3,53.596 C162.544,54.208 160.42,55.54 157.432,55.54 C153.688,55.54 151.492,53.38 151.492,48.304 L151.492,39.772 L149.656,39.772 L149.44,38.368 C151.168,37.288 154.696,34.012 155.74,32.536 L156.82,32.932 L156.82,37.288 Z" id="Flavorist"></path>
            </g>
        </g>
    </g>
</svg>