<?xml version="1.0" encoding="UTF-8"?>
<svg version="1.1" viewBox="0 0 100 100" xmlns="http://www.w3.org/2000/svg">
 <g>
  <path d="m65.645 19.543c1.0352-0.20703 1.9102-0.97656 2.1875-2.0625l1.0742-4.125c0.38672-1.5156-0.52344-3.0625-2.0391-3.4492l-14.055-3.625c-1.5117-0.39453-3.0664 0.52344-3.457 2.0352l-1.0547 4.1289c-0.26953 1.0273 0.078125 2.0625 0.79688 2.75-3.6797 0.45703-9.625 2.2773-10.984 7.5469l-14.422 55.953c-0.44141 1.6719-0.25781 3.3672 0.49609 4.6602 0.55469 0.94531 1.3945 1.6016 2.3633 1.8516l25.129 6.4766c0.29687 0.078125 0.60156 0.11719 0.90625 0.11719 2.125 0 4.0859-1.8203 4.7617-4.4297l14.391-55.812c1.3008-5.0469-2.4727-9.5352-6.0938-12.016zm3.8438 11.438-14.387 55.812c-0.4375 1.6836-1.6211 2.6875-2.5117 2.6875-0.10547 0-0.21484-0.015625-0.32031-0.042969l-25.137-6.4805c-0.47266-0.12109-0.76953-0.48828-0.94141-0.77734-0.4375-0.75-0.53516-1.832-0.25391-2.8984l14.426-55.961c1.1562-4.4844 7.6289-5.9336 10.586-5.9336 0.52734 0 0.73828 0.050781 0.75781 0.054687l9.5391 2.4648c3.1719 0.83203 9.5781 5.875 8.2422 11.074z"/>
  <path d="m59.008 37.656c-1.7422-0.007812-3.7148-0.015625-5.4492-0.55078-3.9844-1.2305-5.9844-5.6719-6.1328-8.4375-0.14453-2.4531-1.6016-3.5508-2.9844-3.5508-1.4023 0-3.3477 1.1836-4.207 4.5156l-12.027 46.289c-0.60938 2.3516 0.40625 4.6562 2.2656 5.1367l19.859 5.1289c0.22656 0.054688 0.46094 0.085938 0.69141 0.085938 1.6758 0 3.2656-1.4727 3.7773-3.5l10.508-40.43c0.23047-1.4531 0.019531-2.5391-0.64453-3.3242-1.1367-1.3438-3.2305-1.3555-5.6562-1.3633zm4.5117 4.3125-10.492 40.348c-0.39062 1.5391-1.5469 2.2617-2.2422 2.0898l-19.852-5.125c-0.86328-0.22266-1.2969-1.5508-0.94922-2.8984l12.027-46.297c0.55469-2.1562 1.6445-3.1367 2.4258-3.1367 0.63672 0 1.0859 0.71484 1.1484 1.8164 0.16406 3.0625 2.3242 8.5117 7.4219 10.09 1.9961 0.61719 4.1172 0.625 5.9844 0.63281 1.8906 0.007813 3.6758 0.015625 4.2734 0.71875 0.30078 0.34766 0.37891 0.96875 0.25391 1.7617z"/>
  <path d="m64.543 27.59c-1.3906 0-2.6055 0.94141-2.9492 2.2852l-0.26172 0.98047c-0.41406 1.6133 0.57031 3.2773 2.1953 3.707 0.25 0.0625 0.50391 0.097656 0.75781 0.097656 1.3945 0 2.6055-0.94141 2.9492-2.2969l0.23828-0.96875c0.20703-0.78516 0.097656-1.6055-0.31641-2.3047-0.41406-0.70312-1.0742-1.2031-1.8594-1.4062-0.24609-0.0625-0.5-0.09375-0.75391-0.09375zm1.6172 2.0898c0.25391 0.43359 0.32422 0.9375 0.19141 1.4297l-0.24219 0.97656c-0.25 0.98437-1.3203 1.6055-2.2891 1.3555-1.0078-0.26562-1.6172-1.2969-1.3633-2.2891l0.26172-0.98438c0.21484-0.83203 0.96094-1.4141 1.8242-1.4141 0.15625 0 0.31641 0.019532 0.46875 0.058594 0.48438 0.12109 0.89062 0.42969 1.1484 0.86719z"/>
  <path d="m11.609 70.508c0.34375-0.50781 0.21484-1.1992-0.29297-1.543-0.50781-0.34766-1.1992-0.21484-1.5469 0.29297-0.070312 0.10156-6.8555 10.332 1.75 22.559 0.21484 0.30859 0.5625 0.47266 0.91016 0.47266 0.22266 0 0.44531-0.066406 0.64062-0.20312 0.50391-0.35547 0.62109-1.0469 0.26953-1.5508-7.6797-10.918-1.9883-19.641-1.7305-20.027z"/>
  <path d="m85.504 16.898c-0.34766-0.50781-1.0352-0.63672-1.543-0.29297-0.50781 0.34375-0.64063 1.0352-0.29688 1.543 0.24609 0.36719 5.9609 9.0977-1.7305 20.023-0.35547 0.50391-0.23438 1.1953 0.26953 1.5508 0.19531 0.13672 0.41797 0.20312 0.64062 0.20312 0.35156 0 0.69141-0.16406 0.91016-0.47266 8.6016-12.223 1.8203-22.453 1.75-22.555z"/>
  <path d="m78.117 20.445c-0.33984 0.23047-0.42578 0.69141-0.19922 1.0312 0.16406 0.24219 3.9727 6.0703-1.168 13.375-0.23438 0.33594-0.15625 0.80078 0.17969 1.0352 0.12891 0.089843 0.27734 0.13672 0.42578 0.13672 0.23438 0 0.46484-0.10938 0.60938-0.31641 5.7461-8.1719 1.2266-14.996 1.1797-15.062-0.23047-0.33984-0.6875-0.42578-1.0273-0.19922z"/>
  <path d="m16.535 73.828c0.23047-0.33984 0.14062-0.80078-0.19922-1.0312-0.33984-0.23047-0.80078-0.14062-1.0312 0.19531-0.046876 0.066406-4.5625 6.9102 1.1797 15.066 0.14453 0.20703 0.375 0.31641 0.60938 0.31641 0.14844 0 0.29688-0.042969 0.42578-0.13672 0.33594-0.23438 0.41406-0.69922 0.17969-1.0352-5.1328-7.2891-1.3281-13.133-1.1641-13.375z"/>
 </g>
</svg>
