<?xml version="1.0" encoding="UTF-8"?>
<svg viewBox="0 0 32 32" version="1.1" xmlns="http://www.w3.org/2000/svg" xmlns:xlink="http://www.w3.org/1999/xlink">
    <!-- Generator: Sketch 56.3 (81716) - https://sketch.com -->
    <title>Artboard</title>
    <desc>Created with Sketch.</desc>
    <g id="Artboard" stroke="none" stroke-width="1" fill="none" fill-rule="evenodd">
        <path d="M6.84,23.105 L0.897,8.3 L4.467,8.3 L8.31,18.653 L12.153,8.3 L15.639,8.3 L9.696,23.105 L6.84,23.105 Z M24.984,23.252 C20.406,23.252 17.256,20.039 17.256,15.692 L17.256,15.65 C17.256,11.471 20.511,8.048 24.963,8.048 C27.609,8.048 29.205,8.762 30.738,10.064 L28.701,12.521 C27.567,11.576 26.559,11.03 24.858,11.03 C22.506,11.03 20.637,13.109 20.637,15.608 L20.637,15.65 C20.637,18.338 22.485,20.312 25.089,20.312 C26.265,20.312 27.315,20.018 28.134,19.43 L28.134,17.33 L24.879,17.33 L24.879,14.537 L31.263,14.537 L31.263,20.921 C29.751,22.202 27.672,23.252 24.984,23.252 Z" id="VG" fill="#000000" fill-rule="nonzero"></path>
    </g>
</svg>
